<?xml version="1.0" encoding="utf-8"?>
<!-- Generator: Adobe Illustrator 17.0.0, SVG Export Plug-In . SVG Version: 6.00 Build 0)  -->
<!DOCTYPE svg PUBLIC "-//W3C//DTD SVG 1.0//EN" "http://www.w3.org/TR/2001/REC-SVG-20010904/DTD/svg10.dtd">
<svg version="1.0" id="Capa_1" xmlns="http://www.w3.org/2000/svg" xmlns:xlink="http://www.w3.org/1999/xlink" x="0px" y="0px"
	 width="800px" height="800px" viewBox="0 0 800 800" enable-background="new 0 0 800 800" xml:space="preserve">
<g>
	<path fill="#FFFFFF" d="M181.748,194.774C117.118,230.62,60.05,282.866,16.711,345.861l0,0c-22.279,32.384-22.279,75.897,0,108.28
		c43.339,62.996,100.407,115.241,165.037,151.087c66.928,37.122,142.4,56.743,218.254,56.743s151.326-19.623,218.254-56.743
		c64.63-35.846,121.698-88.092,165.037-151.087c11.141-16.192,16.711-35.163,16.709-54.141c-0.002-18.973-5.571-37.95-16.709-54.142
		c-43.339-62.996-100.407-115.24-165.037-151.086c-66.93-37.122-142.4-56.743-218.254-56.743S248.676,157.653,181.748,194.774z
		 M122.468,532.748v-265.49c9.519-8.053,19.322-15.706,29.396-22.908v311.307C141.79,548.454,131.987,540.801,122.468,532.748z
		 M38.08,439.441c-8.113-11.795-12.172-25.616-12.172-39.439s4.058-27.643,12.172-39.439l0,0
		c17.32-25.175,36.963-48.505,58.45-69.645v218.166C75.043,487.945,55.398,464.614,38.08,439.441z M677.536,267.256v265.492
		c-9.519,8.053-19.322,15.706-29.396,22.908V244.349C658.214,251.55,668.017,259.203,677.536,267.256z M761.923,360.561
		c16.228,23.591,16.23,55.289,0,78.878c-17.32,25.175-36.963,48.505-58.45,69.645V290.918
		C724.96,312.057,744.604,335.387,761.923,360.561z M605.674,217.457c5.577,3.094,11.072,6.36,16.528,9.708v345.674
		c-5.454,3.348-10.949,6.616-16.528,9.708c-63.99,35.492-133.189,53.489-205.673,53.489s-141.684-17.996-205.673-53.489
		c-5.577-3.094-11.072-6.36-16.526-9.708V227.165c5.454-3.348,10.949-6.614,16.526-9.708
		c63.99-35.492,133.189-53.489,205.673-53.489S541.684,181.964,605.674,217.457z"/>
	<path fill="#FFFFFF" d="M302.303,358.501c0-7.164-5.807-12.969-12.969-12.969s-12.969,5.805-12.969,12.969v28.532h-56.198
		c-7.162,0-12.969,5.805-12.969,12.969s5.807,12.969,12.969,12.969h56.198v28.532c0,7.164,5.807,12.969,12.969,12.969
		s12.969-5.805,12.969-12.969v-28.532h29.396v28.532c0,7.164,5.807,12.969,12.969,12.969s12.969-5.805,12.969-12.969v-28.532h29.396
		v28.532c0,7.164,5.807,12.969,12.969,12.969s12.969-5.805,12.969-12.969v-28.532h29.396v28.532c0,7.164,5.807,12.969,12.969,12.969
		s12.969-5.805,12.969-12.969v-28.532h29.396v28.532c0,7.164,5.807,12.969,12.969,12.969c7.162,0,12.969-5.805,12.969-12.969
		v-28.532h56.198c7.162,0,12.969-5.805,12.969-12.969s-5.807-12.969-12.969-12.969h-56.198v-28.532
		c0-7.164-5.807-12.969-12.969-12.969s-12.969,5.805-12.969,12.969v28.532h-29.396v-28.532c0-7.164-5.807-12.969-12.969-12.969
		s-12.969,5.805-12.969,12.969v28.532h-29.396v-28.532c0-7.164-5.807-12.969-12.969-12.969s-12.969,5.805-12.969,12.969v28.532
		h-29.396v-28.532c0-7.164-5.807-12.969-12.969-12.969s-12.969,5.805-12.969,12.969v28.532h-29.396L302.303,358.501L302.303,358.501
		z"/>
</g>
</svg>
