<?xml version="1.0" encoding="utf-8"?>
<!-- Generator: Adobe Illustrator 17.0.0, SVG Export Plug-In . SVG Version: 6.00 Build 0)  -->
<!DOCTYPE svg PUBLIC "-//W3C//DTD SVG 1.0//EN" "http://www.w3.org/TR/2001/REC-SVG-20010904/DTD/svg10.dtd">
<svg version="1.0" id="Capa_1" xmlns="http://www.w3.org/2000/svg" xmlns:xlink="http://www.w3.org/1999/xlink" x="0px" y="0px"
	 width="800px" height="800px" viewBox="0 0 800 800" enable-background="new 0 0 800 800" xml:space="preserve">
<g>
	<path d="M605.228,181.746c-35.846-64.63-88.092-121.698-151.087-165.037l0,0c-32.384-22.279-75.897-22.279-108.28,0
		C282.865,60.048,230.62,117.116,194.774,181.746C157.651,248.674,138.03,324.146,138.03,400s19.623,151.326,56.743,218.254
		c35.846,64.63,88.092,121.698,151.087,165.037c16.192,11.141,35.163,16.711,54.141,16.709c18.973-0.002,37.95-5.571,54.142-16.709
		c62.996-43.339,115.24-100.407,151.086-165.037c37.122-66.93,56.743-142.4,56.743-218.254S642.349,248.674,605.228,181.746z
		 M267.254,122.466h265.49c8.053,9.519,15.706,19.322,22.908,29.396H244.346C251.548,141.788,259.201,131.985,267.254,122.466z
		 M360.561,38.078c11.795-8.113,25.616-12.172,39.439-12.172c13.823,0,27.643,4.058,39.439,12.172l0,0
		c25.175,17.32,48.505,36.963,69.645,58.45H290.918C312.057,75.041,335.387,55.396,360.561,38.078z M532.746,677.534H267.254
		c-8.053-9.519-15.706-19.322-22.908-29.396h311.307C548.452,658.212,540.799,668.015,532.746,677.534z M439.441,761.922
		c-23.591,16.228-55.289,16.23-78.878,0c-25.175-17.319-48.505-36.963-69.645-58.45h218.166
		C487.945,724.959,464.614,744.602,439.441,761.922z M582.545,605.673c-3.094,5.577-6.36,11.072-9.708,16.528H227.163
		c-3.348-5.454-6.616-10.949-9.708-16.528c-35.492-63.99-53.489-133.189-53.489-205.673s17.996-141.684,53.489-205.673
		c3.094-5.577,6.36-11.072,9.708-16.526h345.674c3.348,5.454,6.614,10.949,9.708,16.526c35.491,63.99,53.489,133.189,53.489,205.673
		S618.038,541.682,582.545,605.673z"/>
	<path d="M441.5,302.301c7.164,0,12.969-5.807,12.969-12.969c0-7.162-5.805-12.969-12.969-12.969h-28.532v-56.198
		c0-7.162-5.805-12.969-12.969-12.969c-7.164,0-12.969,5.807-12.969,12.969v56.198H358.5c-7.164,0-12.969,5.807-12.969,12.969
		c0,7.162,5.805,12.969,12.969,12.969h28.532v29.396H358.5c-7.164,0-12.969,5.807-12.969,12.969c0,7.162,5.805,12.969,12.969,12.969
		h28.532v29.396H358.5c-7.164,0-12.969,5.807-12.969,12.969c0,7.162,5.805,12.969,12.969,12.969h28.532v29.396H358.5
		c-7.164,0-12.969,5.807-12.969,12.969c0,7.162,5.805,12.969,12.969,12.969h28.532v29.396H358.5
		c-7.164,0-12.969,5.807-12.969,12.969s5.805,12.969,12.969,12.969h28.532v56.198c0,7.162,5.805,12.969,12.969,12.969
		c7.164,0,12.969-5.807,12.969-12.969v-56.198H441.5c7.164,0,12.969-5.807,12.969-12.969s-5.805-12.969-12.969-12.969h-28.532
		v-29.396H441.5c7.164,0,12.969-5.807,12.969-12.969c0-7.162-5.805-12.969-12.969-12.969h-28.532v-29.396H441.5
		c7.164,0,12.969-5.807,12.969-12.969c0-7.162-5.805-12.969-12.969-12.969h-28.532v-29.396H441.5
		c7.164,0,12.969-5.807,12.969-12.969c0-7.162-5.805-12.969-12.969-12.969h-28.532v-29.396H441.5z"/>
</g>
</svg>
