<?xml version="1.0" encoding="UTF-8" standalone="no"?>
<!-- Created with Inkscape (http://www.inkscape.org/) -->

<svg
   xmlns:dc="http://purl.org/dc/elements/1.1/"
   xmlns:cc="http://creativecommons.org/ns#"
   xmlns:rdf="http://www.w3.org/1999/02/22-rdf-syntax-ns#"
   xmlns:svg="http://www.w3.org/2000/svg"
   xmlns="http://www.w3.org/2000/svg"
   xmlns:sodipodi="http://sodipodi.sourceforge.net/DTD/sodipodi-0.dtd"
   xmlns:inkscape="http://www.inkscape.org/namespaces/inkscape"
   width="363.76929mm"
   height="243.70164mm"
   viewBox="0 0 1288.9463 863.50976"
   id="svg2"
   version="1.1"
   inkscape:version="0.91 r13725"
   sodipodi:docname="Kansas_City_Chiefs_KC_logo.svg">
  <defs
     id="defs4" />
  <sodipodi:namedview
     id="base"
     pagecolor="#ffffff"
     bordercolor="#666666"
     borderopacity="1.0"
     inkscape:pageopacity="0.0"
     inkscape:pageshadow="2"
     inkscape:zoom="0.25"
     inkscape:cx="150.33054"
     inkscape:cy="894.96016"
     inkscape:document-units="px"
     inkscape:current-layer="g4224"
     showgrid="false"
     inkscape:window-width="1366"
     inkscape:window-height="706"
     inkscape:window-x="0"
     inkscape:window-y="38"
     inkscape:window-maximized="1"
     fit-margin-top="0"
     fit-margin-left="0"
     fit-margin-right="0"
     fit-margin-bottom="0" />
  <metadata
     id="metadata7">
    <rdf:RDF>
      <cc:Work
         rdf:about="">
        <dc:format>image/svg+xml</dc:format>
        <dc:type
           rdf:resource="http://purl.org/dc/dcmitype/StillImage" />
        <dc:title></dc:title>
      </cc:Work>
    </rdf:RDF>
  </metadata>
  <g
     inkscape:label="Layer 1"
     inkscape:groupmode="layer"
     id="layer1"
     transform="translate(-447.2997,-1503.0766)">
    <g
       id="g4224"
       transform="translate(730.61513,-692.86312)">
      <g
         id="g4523"
         transform="translate(1646,0)">
        <g
           id="g4497">
          <path
             inkscape:connector-curvature="0"
             id="path4201-35-5-8"
             d="m -1048.2805,2414.9552 c -133.3195,1.9351 -267.7199,41.7901 -375.2773,121.7832 -50.7739,38.6033 -95.4591,89.2147 -114.502,151.1367 -16.9283,57.8816 -7.1358,140.1145 30.0203,188.5969 39.5921,54.3165 97.8154,88.1438 159.6184,112.0722 93.3026,35.4297 198.0357,32.3473 297.0447,22.3156 85.03665,-9.1292 166.75375,-34.5018 238.55305,-81.8254 79.1869,-49.5155 120.0993,-114.1859 120.0993,-180.9445 l -106.9627,0 c -14.4813,39.6001 -49.0398,67.901 -85.6465,86.2442 -84.1269,41.7649 -181.05255,50.7137 -273.42435,40.6182 -54.5083,-6.1015 -109.9816,-21.9214 -153.1644,-57.2831 -31.0117,-25.1184 -52.3314,-66.1173 -44.2621,-106.3005 8.6216,-32.269 36.0195,-54.0303 59.3665,-75.9135 46.5153,-39.6833 102.9676,-66.5608 161.3845,-83.157 54.1437,-14.6472 111.6391,-15.6748 166.37716,-3.2428 58.16259,12.386 108.51499,62.5174 148.57519,107.5776 6.1227,7.2152 11.5576,15.1919 16.1722,23.4546 l 73.1342,0 34.9505,-34.825 0,-205.575 c -30.1084,3.371 -60.9516,-3.1527 -90.6758,3.8086 l -34.3047,22.9707 c -68.6487,-38.9764 -149.04033,-51.7711 -227.07615,-51.5117 z"
             style="color:#000000;clip-rule:nonzero;display:inline;overflow:visible;visibility:visible;opacity:1;isolation:auto;mix-blend-mode:normal;color-interpolation:sRGB;color-interpolation-filters:linearRGB;solid-color:#000000;solid-opacity:1;fill:#000000;fill-opacity:1;fill-rule:nonzero;stroke:none;stroke-width:5;stroke-linecap:round;stroke-linejoin:miter;stroke-miterlimit:4;stroke-dasharray:none;stroke-dashoffset:0;stroke-opacity:1;color-rendering:auto;image-rendering:auto;shape-rendering:auto;text-rendering:auto;enable-background:accumulate"
             sodipodi:nodetypes="cccccccccccccccccccccccc" />
          <path
             style="color:#000000;clip-rule:nonzero;display:inline;overflow:visible;visibility:visible;opacity:1;isolation:auto;mix-blend-mode:normal;color-interpolation:sRGB;color-interpolation-filters:linearRGB;solid-color:#000000;solid-opacity:1;fill:#b20032;fill-opacity:1;fill-rule:nonzero;stroke:none;stroke-width:5;stroke-linecap:round;stroke-linejoin:miter;stroke-miterlimit:4;stroke-dasharray:none;stroke-dashoffset:0;stroke-opacity:1;color-rendering:auto;image-rendering:auto;shape-rendering:auto;text-rendering:auto;enable-background:accumulate"
             d="m -1040.6763,2432.6842 c -45.3743,0.056 -92.2137,5.2729 -138.3897,15.4537 -203.3533,44.8648 -352.8699,175.2307 -345.3073,301.0788 -0.1456,1.4823 -0.2684,2.9655 -0.3686,4.4492 0,134.0075 180.85,242.6431 403.9453,242.6427 215.13745,-0.067 389.03505,-104.243 410.03545,-230.4711 l -73.723,0 c -34.1059,75.8038 -152.45606,126.8991 -288.17885,130.4479 -195.8199,5.1201 -299.6244,-74.9914 -300.131,-170.0868 -0.2022,-47.0661 40.3054,-81.8739 92.1164,-125.1914 58.701,-37.2106 138.6497,-78.006 232.2087,-78.7514 115.53239,-0.7799 222.61725,49.2717 264.63415,115.3628 l 72.9245,0 0,-179.4152 -62.6572,0 -43.6932,29.2575 c -51.2916,-32.2058 -121.95026,-51.8833 -204.06565,-54.4871 -6.416,-0.2034 -12.8679,-0.2976 -19.35,-0.2896 z"
             id="path4201-35-6-94"
             inkscape:connector-curvature="0" />
          <g
             id="g4493">
            <path
               id="rect4306-3-4"
               d="m -1834.1613,2252.6223 -41.707,41.707 0,56.4239 46.8125,0 0,308.0234 -17.8516,0 -32.6602,32.6601 0,80.4473 294.0528,0 25.666,-25.666 0,-87.3242 -0.1914,0 0,-0.1172 -45.7285,0 0,-26.3926 178.705,-104.1113 121.3868,130.5039 -11.4239,0 11.5625,11.5625 -26.0175,26.0176 0,75.5273 281.6386,0 32.2559,-32.2558 0,-80.7344 0,-0.1172 -19.0078,0 -16.586,-17.2598 -198.8007,-215.1914 129.7168,-75.5722 65.6621,0 30.3398,-30.3399 0,-67.791 -4.1621,0 -273.6895,0 -38.5644,38.5644 0,39.8125 -263.0156,153.0567 0,-117.2949 0,0 0,0 45.9199,-45.92 0,-68.2109 -0.1914,0 -274.1211,0 z"
               style="color:#000000;clip-rule:nonzero;display:inline;overflow:visible;visibility:visible;opacity:1;isolation:auto;mix-blend-mode:normal;color-interpolation:sRGB;color-interpolation-filters:linearRGB;solid-color:#000000;solid-opacity:1;fill:#000000;fill-opacity:1;fill-rule:nonzero;stroke:none;stroke-width:5;stroke-linecap:round;stroke-linejoin:miter;stroke-miterlimit:4;stroke-dasharray:none;stroke-dashoffset:0;stroke-opacity:1;color-rendering:auto;image-rendering:auto;shape-rendering:auto;text-rendering:auto;enable-background:accumulate"
               inkscape:connector-curvature="0" />
            <path
               inkscape:connector-curvature="0"
               id="rect4306-7-7"
               d="m -1829.8663,2270.3724 0,46.5366 40.9202,0 0,360.5241 -40.9202,0 0,51.0734 255.1391,0 0,-51.0734 -45.7292,0 0,-55.6367 200.1342,-116.5914 159.0911,172.2281 -47.1156,0 0,51.0734 275.9984,0 0,-51.0734 -8.7316,0 -236.105,-255.613 180.0734,-104.9111 51.9247,0 0,-46.5366 -263.1599,0 0,46.5366 28.1255,0 -340.2352,198.2123 0,-198.2123 45.7292,0 0,-46.5366 -255.1391,0 z"
               style="color:#000000;clip-rule:nonzero;display:inline;overflow:visible;visibility:visible;opacity:1;isolation:auto;mix-blend-mode:normal;color-interpolation:sRGB;color-interpolation-filters:linearRGB;solid-color:#000000;solid-opacity:1;fill:#b20032;fill-opacity:1;fill-rule:nonzero;stroke:none;stroke-width:5;stroke-linecap:round;stroke-linejoin:miter;stroke-miterlimit:4;stroke-dasharray:none;stroke-dashoffset:0;stroke-opacity:1;color-rendering:auto;image-rendering:auto;shape-rendering:auto;text-rendering:auto;enable-background:accumulate" />
          </g>
        </g>
      </g>
    </g>
  </g>
</svg>
